<svg width="339" height="324" viewBox="0 0 339 324" fill="none" xmlns="http://www.w3.org/2000/svg">
<g filter="url(#filter0_d_30_61)">
<path d="M322.918 84.8244L226.091 110.801L242.62 11.6135C243.407 6.88942 241.045 2.1652 236.321 0.59051C231.597 -0.984178 226.873 0.590497 224.511 5.31456L171.77 98.2036L77.3058 6.10206C73.3691 2.95268 67.8576 2.16534 63.9209 5.3147C59.9841 8.46406 59.1968 13.9756 61.5588 17.9124L132.415 133.634L11.9745 154.887C7.25039 155.675 3.31348 160.399 4.10082 165.123C4.10082 169.847 8.03754 173.784 12.7618 174.571L131.627 187.169L84.393 264.317C83.6057 265.892 82.8183 267.467 82.8183 269.041C82.8183 271.403 83.6057 274.553 85.1804 276.128C88.3297 279.277 93.054 280.064 96.9907 277.702L107.226 271.404L181.225 226.53L211.139 309.183C212.713 313.12 216.65 315.482 220.587 315.482H222.162C226.886 314.695 230.035 310.758 230.035 305.246L227.673 215.506L300.098 245.42C304.822 246.995 309.547 245.42 311.909 241.483C314.271 237.546 314.271 232.035 310.334 228.885L242.634 161.185L330.012 101.359C333.949 98.9969 335.523 93.4853 333.161 88.7612C330.787 84.0372 327.638 84.0372 322.92 84.8245L322.918 84.8244ZM222.943 152.524C220.581 154.099 219.006 156.461 219.006 159.611C219.006 162.76 219.794 165.122 222.156 167.484L263.092 208.42L222.156 191.886C219.006 190.311 215.857 191.098 212.707 192.673C210.345 194.248 207.983 197.397 208.771 201.334L209.558 246.208L196.173 209.208C195.386 206.058 193.024 204.483 189.874 202.909C189.087 202.909 187.512 202.121 186.725 202.121C185.15 202.121 183.576 202.909 182.001 203.696L121.387 239.909L156.024 183.232C157.599 180.083 157.599 176.933 156.812 173.784C155.237 170.634 152.088 169.06 148.938 168.272L83.6005 161.186L148.938 149.376C152.087 148.588 154.449 147.014 156.024 143.864C157.599 140.715 156.812 137.566 155.237 134.416L118.237 73.0146L165.471 119.463C167.833 121.825 170.983 122.612 174.132 121.825C177.282 121.038 179.644 119.463 181.218 117.101L212.706 61.2104L203.258 121.037C202.47 124.186 204.045 127.336 206.407 129.698C208.769 132.06 212.706 132.847 215.855 132.06L272.532 117.1L222.943 152.524Z" fill="#F7B355"/>
</g>
<g filter="url(#filter1_d_30_61)">
<path d="M213.538 139.152L195.331 147.031L195.898 125.725C195.925 124.71 195.337 123.773 194.372 123.559C193.408 123.345 192.528 123.794 192.193 124.848L184.388 145.728L163.475 128.672C162.622 128.107 161.525 128.078 160.841 128.839C160.157 129.6 160.151 130.781 160.718 131.552L177.655 154.17L154.711 161.641C153.81 161.924 153.168 163.018 153.448 163.993C153.575 164.988 154.449 165.72 155.393 165.768L178.937 165.468L171.784 182.895C171.673 183.246 171.561 183.598 171.604 183.929C171.667 184.427 171.905 185.071 172.255 185.364C172.954 185.949 173.898 185.997 174.603 185.402L176.432 183.82L189.676 172.528L197.733 189.197C198.146 189.987 198.978 190.387 199.746 190.289L200.054 190.25C200.955 189.967 201.464 189.059 201.316 187.898L198.448 169.051L213.39 173.553C214.355 173.767 215.235 173.318 215.59 172.43C215.946 171.542 215.798 170.38 214.945 169.815L199.912 157.235L215.367 142.459C216.072 141.864 216.231 140.664 215.644 139.727C215.053 138.791 214.438 138.869 213.538 139.152L213.538 139.152ZM195.836 155.9C195.417 156.29 195.173 156.827 195.257 157.49C195.341 158.154 195.559 158.632 196.083 159.071L205.173 166.678L196.737 164.212C196.08 163.958 195.487 164.202 194.914 164.612C194.495 165.003 194.118 165.725 194.378 166.535L195.735 175.969L192.129 168.507C191.891 167.863 191.388 167.59 190.731 167.336C190.577 167.356 190.249 167.229 190.095 167.249C189.787 167.288 189.501 167.493 189.215 167.698L178.352 176.833L183.594 164.032C183.817 163.33 183.733 162.666 183.495 162.022C183.103 161.398 182.446 161.144 181.81 161.057L168.864 161.188L181.303 157.076C181.897 156.832 182.316 156.441 182.539 155.739C182.762 155.036 182.523 154.392 182.131 153.768L173.261 141.752L183.728 150.363C184.253 150.802 184.889 150.89 185.483 150.645C186.076 150.401 186.495 150.011 186.739 149.474L191.388 136.917L191.148 149.755C191.079 150.438 191.47 151.063 191.995 151.502C192.519 151.941 193.309 152.009 193.903 151.765L204.567 147.204L195.836 155.9Z" fill="#F7B355"/>
</g>
<defs>
<filter id="filter0_d_30_61" x="0" y="0" width="338.271" height="323.482" filterUnits="userSpaceOnUse" color-interpolation-filters="sRGB">
<feFlood flood-opacity="0" result="BackgroundImageFix"/>
<feColorMatrix in="SourceAlpha" type="matrix" values="0 0 0 0 0 0 0 0 0 0 0 0 0 0 0 0 0 0 127 0" result="hardAlpha"/>
<feOffset dy="4"/>
<feGaussianBlur stdDeviation="2"/>
<feComposite in2="hardAlpha" operator="out"/>
<feColorMatrix type="matrix" values="0 0 0 0 0 0 0 0 0 0 0 0 0 0 0 0 0 0 0.25 0"/>
<feBlend mode="normal" in2="BackgroundImageFix" result="effect1_dropShadow_30_61"/>
<feBlend mode="normal" in="SourceGraphic" in2="effect1_dropShadow_30_61" result="shape"/>
</filter>
<filter id="filter1_d_30_61" x="149.382" y="123.507" width="70.6218" height="74.7971" filterUnits="userSpaceOnUse" color-interpolation-filters="sRGB">
<feFlood flood-opacity="0" result="BackgroundImageFix"/>
<feColorMatrix in="SourceAlpha" type="matrix" values="0 0 0 0 0 0 0 0 0 0 0 0 0 0 0 0 0 0 127 0" result="hardAlpha"/>
<feOffset dy="4"/>
<feGaussianBlur stdDeviation="2"/>
<feComposite in2="hardAlpha" operator="out"/>
<feColorMatrix type="matrix" values="0 0 0 0 0 0 0 0 0 0 0 0 0 0 0 0 0 0 0.25 0"/>
<feBlend mode="normal" in2="BackgroundImageFix" result="effect1_dropShadow_30_61"/>
<feBlend mode="normal" in="SourceGraphic" in2="effect1_dropShadow_30_61" result="shape"/>
</filter>
</defs>
</svg>
